<?xml version="1.0" encoding="UTF-8" standalone="no"?>
<!DOCTYPE svg PUBLIC "-//W3C//DTD SVG 1.1//EN"
 "http://www.w3.org/Graphics/SVG/1.1/DTD/svg11.dtd">
<!-- Generated by graphviz version 2.40.1 (20161225.0304)
 -->
<!-- Title: %3 Pages: 1 -->
<svg width="190pt" height="166pt"
 viewBox="0.00 0.00 190.36 165.62" xmlns="http://www.w3.org/2000/svg" xmlns:xlink="http://www.w3.org/1999/xlink">
<g id="graph0" class="graph" transform="scale(1 1) rotate(0) translate(4 161.6224)">
<title>%3</title>
<polygon fill="#ffffff" stroke="transparent" points="-4,4 -4,-161.6224 186.3553,-161.6224 186.3553,4 -4,4"/>
<!-- x_pos -->
<g id="node1" class="node">
<title>x_pos</title>
<polygon fill="#d3d3d3" stroke="#000000" points="38,-131.267 0,-131.267 0,-113.267 38,-113.267 38,-131.267"/>
<text text-anchor="middle" x="19" y="-120.067" font-family="Times,serif" font-size="9.00" fill="#000000">x_pos</text>
</g>
<!-- y_pos -->
<g id="node2" class="node">
<title>y_pos</title>
<polygon fill="#d3d3d3" stroke="#000000" points="94,-131.267 56,-131.267 56,-113.267 94,-113.267 94,-131.267"/>
<text text-anchor="middle" x="75" y="-120.067" font-family="Times,serif" font-size="9.00" fill="#000000">y_pos</text>
</g>
<!-- Jump -->
<g id="node4" class="node">
<title>Jump</title>
<ellipse fill="#add8e6" stroke="#000000" cx="75" cy="-25.4558" rx="25.4118" ry="25.4118"/>
<text text-anchor="middle" x="75" y="-23.2558" font-family="Times,serif" font-size="9.00" fill="#000000">Jump</text>
</g>
<!-- y_pos&#45;&gt;Jump -->
<g id="edge1" class="edge">
<title>y_pos&#45;&gt;Jump</title>
<path fill="none" stroke="#ff0000" stroke-width=".8823" d="M75,-112.9844C75,-101.1399 75,-79.9608 75,-61.4031"/>
<polygon fill="#ff0000" stroke="#ff0000" stroke-width=".8823" points="78.5001,-61.1552 75,-51.1552 71.5001,-61.1552 78.5001,-61.1552"/>
</g>
<!-- No Jump -->
<g id="node3" class="node">
<title>No Jump</title>
<ellipse fill="#add8e6" stroke="#000000" cx="147" cy="-122.267" rx="35.2113" ry="35.2113"/>
<text text-anchor="middle" x="147" y="-120.067" font-family="Times,serif" font-size="9.00" fill="#000000">No Jump</text>
</g>
</g>
</svg>
